<?xml version="1.0" standalone="no"?>
<!DOCTYPE svg PUBLIC "-//W3C//DTD SVG 20010904//EN"
 "http://www.w3.org/TR/2001/REC-SVG-20010904/DTD/svg10.dtd">
<svg version="1.0" xmlns="http://www.w3.org/2000/svg"
 width="26.000000pt" height="26.000000pt" viewBox="0 0 26.000000 26.000000"
 preserveAspectRatio="xMidYMid meet">

<g transform="translate(0.000000,26.000000) scale(0.100000,-0.100000)"
fill="#000000" stroke="none">
<path d="M66 187 c-86 -100 -83 -125 21 -156 l63 -19 50 56 c33 39 49 65 48
82 0 20 -2 21 -5 5 -2 -11 -25 -44 -51 -73 l-47 -53 -60 18 c-47 15 -61 23
-63 41 -4 26 6 27 73 7 l49 -15 53 57 c48 54 64 82 46 83 -5 1 -34 7 -65 14
l-58 14 -54 -61z m126 7 c13 -8 9 -24 -4 -24 -31 0 -88 22 -82 31 6 10 67 4
86 -7z"/>
</g>
</svg>
