<?xml version="1.0" standalone="no"?>
<svg xmlns:xlink="http://www.w3.org/1999/xlink" id="wave" style="transform:rotate(0deg); transition: 0.3s" viewBox="0 0 1440 100" version="1.1" xmlns="http://www.w3.org/2000/svg"><defs><linearGradient id="sw-gradient-0" x1="0" x2="0" y1="1" y2="0"><stop stop-color="rgba(210, 105, 30, 1)" offset="0%"/><stop stop-color="rgba(210, 105, 30, 1)" offset="100%"/></linearGradient></defs><path style="transform:translate(0, 0px); opacity:1" fill="url(#sw-gradient-0)" d="M0,0L10.9,3.3C21.8,7,44,13,65,18.3C87.3,23,109,27,131,23.3C152.7,20,175,10,196,10C218.2,10,240,20,262,30C283.6,40,305,50,327,50C349.1,50,371,40,393,41.7C414.5,43,436,57,458,56.7C480,57,502,43,524,45C545.5,47,567,63,589,61.7C610.9,60,633,40,655,35C676.4,30,698,40,720,45C741.8,50,764,50,785,55C807.3,60,829,70,851,70C872.7,70,895,60,916,58.3C938.2,57,960,63,982,55C1003.6,47,1025,23,1047,16.7C1069.1,10,1091,20,1113,26.7C1134.5,33,1156,37,1178,43.3C1200,50,1222,60,1244,58.3C1265.5,57,1287,43,1309,31.7C1330.9,20,1353,10,1375,6.7C1396.4,3,1418,7,1440,20C1461.8,33,1484,57,1505,58.3C1527.3,60,1549,40,1560,30L1570.9,20L1570.9,100L1560,100C1549.1,100,1527,100,1505,100C1483.6,100,1462,100,1440,100C1418.2,100,1396,100,1375,100C1352.7,100,1331,100,1309,100C1287.3,100,1265,100,1244,100C1221.8,100,1200,100,1178,100C1156.4,100,1135,100,1113,100C1090.9,100,1069,100,1047,100C1025.5,100,1004,100,982,100C960,100,938,100,916,100C894.5,100,873,100,851,100C829.1,100,807,100,785,100C763.6,100,742,100,720,100C698.2,100,676,100,655,100C632.7,100,611,100,589,100C567.3,100,545,100,524,100C501.8,100,480,100,458,100C436.4,100,415,100,393,100C370.9,100,349,100,327,100C305.5,100,284,100,262,100C240,100,218,100,196,100C174.5,100,153,100,131,100C109.1,100,87,100,65,100C43.6,100,22,100,11,100L0,100Z"/></svg>